<svg width="25" height="25" viewBox="0 0 25 25" fill="none" xmlns="http://www.w3.org/2000/svg">
<path d="M12.5 16.2364L4.57378 24.1848C4.07269 24.683 3.43494 24.9321 2.66053 24.9321C1.88612 24.9321 1.24837 24.683 0.747283 24.1848C0.249094 23.6866 0 23.0525 0 22.2826C0 21.5127 0.249094 20.8786 0.747283 20.3804L8.69565 12.4321L0.747283 4.57391C0.249094 4.07278 0 3.43501 0 2.6606C0 1.88614 0.249094 1.24837 0.747283 0.747283C1.24547 0.249094 1.87953 0 2.64946 0C3.41938 0 4.05344 0.249094 4.55163 0.747283L12.5 8.69565L20.3582 0.747283C20.8593 0.249094 21.4971 0 22.2715 0C23.0459 0 23.6837 0.249094 24.1848 0.747283C24.7283 1.29076 25 1.93614 25 2.68342C25 3.43071 24.7283 4.05344 24.1848 4.55163L16.2364 12.4321L24.1848 20.3583C24.683 20.8594 24.9321 21.4971 24.9321 22.2715C24.9321 23.0459 24.683 23.6837 24.1848 24.1848C23.6413 24.7283 22.9959 25 22.2486 25C21.5014 25 20.8786 24.7283 20.3804 24.1848L12.5 16.2364Z" fill="white"/>
</svg>
