<?xml version="1.0" encoding="UTF-8"?><svg id="Calque_2" xmlns="http://www.w3.org/2000/svg" viewBox="0 0 2000 592.31"><defs><style>.cls-1{fill:#fff;}</style></defs><g id="Logo_blanc"><path class="cls-1" d="m89.33,347.13c-8.43-2.32-16.93-5.23-25.49-8.71-8.57-3.49-16.63-7.48-24.18-11.98-7.56-4.5-14.02-9.73-19.39-15.69-5.38-5.95-8.93-12.42-10.68-19.39-1.16-4.06-2.83-7.91-5.01-11.55-2.18-3.63-3.7-7.48-4.58-11.55l.44-1.31c.29-2.03,3.49-4.06,9.59-6.1,6.1-2.03,12.85-3.77,20.26-5.23,7.41-1.45,14.66-2.54,21.79-3.27,7.12-.72,11.98-.8,14.6-.22,6.1,1.16,10.31,3.92,12.64,8.28,2.32,4.36,4.28,9.01,5.88,13.94,1.59,4.94,3.7,9.59,6.32,13.94,2.61,4.36,7.26,7.27,13.94,8.71,3.49.58,8.06,1.16,13.73,1.74,5.66.58,10.09.87,13.29.87,2.03-2.03,4.36-2.97,6.97-2.83,2.61.15,5.08.22,7.41.22,2.61,0,4.94-.87,6.97-2.61,2.03-1.74,3.77-5.66,5.23-11.77l.44-1.74c0-.58-.07-1.89-.22-3.92-.15-2.03-.65-3.34-1.53-3.92-7.56-6.39-14.09-13.14-19.61-20.26-5.52-7.11-10.75-14.38-15.69-21.79-4.94-7.41-9.88-14.88-14.81-22.44-4.94-7.55-10.31-15.1-16.12-22.66-3.2,0-5.66-.65-7.41-1.96-1.74-1.31-3.2-2.9-4.36-4.79-1.16-1.89-2.25-3.85-3.27-5.88-1.02-2.03-2.11-3.92-3.27-5.66-.58-.29-1.38-1.31-2.4-3.05-1.02-1.74-2.11-3.63-3.27-5.66-1.16-2.03-2.33-4.06-3.49-6.1-1.16-2.03-2.18-3.48-3.05-4.36-14.24-13.65-22.81-27.45-25.71-41.4-2.91-13.94-2.76-28.76.44-44.44.87-3.77,2.32-7.91,4.36-12.42,2.03-4.5,4.43-8.78,7.19-12.86,2.76-4.06,5.88-7.84,9.37-11.33,3.49-3.49,7.26-6.1,11.33-7.84,6.39-2.9,13.73-5.3,22-7.19,8.28-1.89,16.84-3.27,25.71-4.14,8.86-.87,17.65-1.16,26.36-.87,8.71.29,16.7,1.16,23.97,2.61,3.77.59,7.91,1.89,12.42,3.92,4.5,2.04,9,4.21,13.51,6.54,4.5,2.33,9.08,4.65,13.73,6.97,4.64,2.33,9,4.07,13.07,5.23.29,1.46,2.46,3.2,6.54,5.23,4.06,2.04,8.56,4.51,13.51,7.41,4.94,2.91,9.73,6.1,14.38,9.59,4.64,3.49,7.84,7.41,9.59,11.77,1.74,4.65,4.28,9.8,7.63,15.47,3.34,5.66,4.72,10.97,4.14,15.9-.87,2.61-4.21,4.79-10.02,6.54-5.81,1.74-12.28,3.05-19.39,3.92-7.12.87-14.09,1.38-20.92,1.53-6.83.15-11.55-.07-14.16-.65-1.46-.58-3.64-1.16-6.54-1.74-2.91-.58-4.79-1.74-5.66-3.49l-13.94-28.32c-1.16-2.03-3.7-3.49-7.63-4.36-3.92-.87-6.61-1.45-8.06-1.74-5.23-1.16-10.53-2.18-15.9-3.05-5.38-.87-10.46-1.01-15.25-.44-4.79.59-8.93,2.11-12.42,4.58-3.49,2.47-5.81,6.47-6.97,11.98-.59,2.61-.95,4.51-1.09,5.66-.15,1.16.07,2.25.65,3.27.58,1.02,1.53,2.11,2.83,3.27,1.31,1.16,3.27,3.05,5.88,5.66,6.1,6.69,11.25,12.93,15.47,18.74,4.21,5.81,8.2,11.55,11.98,17.21,3.77,5.66,7.63,11.33,11.55,16.99s8.5,11.7,13.73,18.08c2.61,3.78,4.86,7.84,6.75,12.2,1.89,4.36,4.86,8.57,8.93,12.64,2.32,2.33,5.08,5.16,8.28,8.5,3.19,3.34,6.46,6.9,9.8,10.68,3.34,3.78,6.46,7.41,9.37,10.89,2.9,3.48,5.23,6.69,6.97,9.59,2.32,4.07,4.06,8.21,5.23,12.42,1.16,4.21,3.63,7.78,7.41,10.68-1.16,8.14-1.74,16.27-1.74,24.4s-.73,15.98-2.18,23.53c-2.33,11.33-6.83,20.41-13.51,27.23-6.69,6.83-14.75,12.06-24.18,15.69-9.44,3.64-20.04,6.03-31.81,7.19-11.77,1.16-23.9,1.74-36.38,1.74-.29,0-1.38-.07-3.27-.22-1.89-.14-4-.29-6.32-.44-2.33-.14-4.73-.29-7.19-.44-2.47-.14-4.29-.36-5.45-.65l-5.66-1.31c-.59-.29-1.74.15-3.49,1.31-1.74,1.16-2.76,1.74-3.05,1.74-2.33,0-4-1.16-5.01-3.49-1.02-2.32-1.96-4.64-2.83-6.97Z"/><path class="cls-1" d="m261.44,205.52l-3.92-5.66c-.29-5.52-.29-10.02,0-13.51.29-3.48.72-7.41,1.31-11.76,2.61-4.94,4.5-10.38,5.66-16.34,1.16-5.95,1.45-10.96.87-15.03l12.64-30.07c0-.29.58-1.31,1.74-3.05,1.16-1.74,2.4-3.63,3.7-5.66,1.31-2.03,2.61-3.99,3.92-5.88,1.31-1.89,2.1-3.12,2.4-3.7,1.45-2.03,4.36-4.43,8.71-7.19,4.36-2.76,7.41-5.3,9.15-7.62.87-1.16,2.18-2.9,3.92-5.23,1.74-2.32,3.55-4.79,5.45-7.41,1.89-2.62,3.77-5.08,5.66-7.41,1.89-2.32,3.27-3.92,4.14-4.79,2.9-3.19,6.39-5.59,10.46-7.19,4.06-1.59,8.13-3.99,12.2-7.19,5.23-4.36,9.8-8.28,13.73-11.77s7.84-6.46,11.77-8.93c3.92-2.46,8.2-4.57,12.85-6.32,4.64-1.74,10.46-3.05,17.43-3.92,6.68-1.16,12.27-2.4,16.78-3.7,4.5-1.31,10.38-1.96,17.65-1.96,2.32,0,4.43,1.16,6.32,3.49,1.89,2.33,3.55,5.16,5.01,8.5,1.45,3.34,2.54,6.69,3.27,10.02.72,3.34,1.09,6.03,1.09,8.06,0,6.1-2.69,10.97-8.06,14.6-5.38,3.64-11.55,6.83-18.52,9.59-6.97,2.76-13.94,5.45-20.92,8.06-6.97,2.61-12.2,6.1-15.69,10.46v2.61c0,.29-.37,1.31-1.09,3.05-.73,1.74-1.6,3.56-2.61,5.45-1.02,1.89-1.96,3.7-2.83,5.45-.87,1.74-1.46,2.77-1.74,3.05-.58,1.46-1.6,2.33-3.05,2.61-1.46.29-3.05.59-4.79.87-1.74.29-3.7.95-5.88,1.96-2.18,1.02-4.43,2.98-6.75,5.88-2.91,3.78-6.1,8.35-9.59,13.73-3.49,5.38-6.83,10.75-10.02,16.12-3.2,5.38-5.96,10.1-8.28,14.16-2.33,4.07-3.92,6.69-4.79,7.84-1.16,1.74-1.09,5.88.22,12.42,1.31,6.54,3.05,14.09,5.23,22.66,2.18,8.57,4.43,17.36,6.75,26.36,2.32,9.01,4.06,16.71,5.23,23.09.87,4.36,2.9,8.21,6.1,11.55,3.19,3.34,6.82,6.25,10.89,8.71,4.06,2.47,8.2,4.65,12.42,6.53,4.21,1.89,7.91,3.56,11.11,5.01,1.74.87,3.27,2.03,4.58,3.48,1.31,1.46,2.61,2.83,3.92,4.14,1.31,1.31,2.83,2.4,4.58,3.27,1.74.87,4.06,1.31,6.97,1.31.29-.29.36-1.16.22-2.61-.15-1.45-.08-2.18.22-2.18,3.19.58,8.64,2.47,16.34,5.66,7.69,3.2,15.47,6.9,23.31,11.11,7.84,4.21,14.81,8.35,20.92,12.42,6.1,4.07,9.15,7.26,9.15,9.59s-.37,4.29-1.09,5.88c-.73,1.6-1.09,3.42-1.09,5.45,0,1.46.72,2.18,2.18,2.18,1.74,0,2.61.73,2.61,2.18,0,3.2-.8,5.96-2.4,8.28-1.6,2.33-3.56,4.36-5.88,6.1-2.33,1.74-4.87,3.2-7.62,4.36-2.76,1.16-5.45,2.03-8.06,2.61h-3.92c-1.74,0-3.64.07-5.66.22-2.04.14-4.07.22-6.1.22h-3.92c-15.69,0-29.78-1.52-42.27-4.57-12.49-3.05-25.27-8.78-38.34-17.21-1.16-.87-3.78-2.83-7.84-5.88-4.07-3.05-8.43-6.24-13.07-9.59-4.65-3.34-9.01-6.54-13.07-9.59-4.07-3.05-6.69-5.01-7.84-5.88-8.71-6.39-15.98-13.36-21.79-20.92-5.81-7.55-10.75-15.69-14.81-24.4-4.07-8.71-7.41-17.79-10.02-27.23-2.61-9.44-5.09-19.1-7.41-28.98Z"/><path class="cls-1" d="m563.4,268.26c-4.07.59-7.56,1.89-10.46,3.92-5.23,4.07-9.37,9.88-12.42,17.43-3.05,7.56-5.88,14.67-8.5,21.35-2.61,6.69-5.38,11.92-8.28,15.69-2.91,3.78-6.83,4.07-11.76.87-1.46-.87-3.64-.58-6.54.87-2.91,1.46-5.09,1.31-6.54-.44-3.19-3.77-6.17-6.75-8.93-8.93-2.76-2.18-4.14-5.3-4.14-9.37,0-.29.44-1.31,1.31-3.05.87-1.74,1.74-3.63,2.61-5.66.87-2.03,1.74-3.92,2.61-5.66s1.31-2.76,1.31-3.05c.29-1.74-.14-4.72-1.31-8.93-1.16-4.21-1.89-7.04-2.18-8.5l47.93-95.86c-.59-3.19-1.38-6.03-2.4-8.5-1.02-2.47-1.24-5.15-.65-8.06.87-4.36,2.61-8.93,5.23-13.73,2.62-4.79,4.79-9.22,6.54-13.29,1.16-2.32,2.97-6.17,5.45-11.55,2.46-5.37,5.23-11.47,8.28-18.3,3.05-6.82,6.32-14.09,9.8-21.79,3.49-7.69,6.75-15.03,9.8-22,3.05-6.97,5.88-13.22,8.5-18.74,2.61-5.51,4.64-9.59,6.1-12.2,3.19-6.68,7.55-11.98,13.07-15.9,5.51-3.92,11.91-5.88,19.17-5.88,1.74,1.46,2.68,2.91,2.83,4.36.14,1.46.36,2.69.65,3.7.29,1.02.94,1.96,1.96,2.83,1.01.87,3.41,1.6,7.19,2.18,5.23,5.81,9.37,12.57,12.42,20.26,3.05,7.7,5.37,15.69,6.97,23.97,1.59,8.28,2.76,16.56,3.49,24.84.72,8.28,1.53,15.9,2.4,22.88.29,2.33.29,5.6,0,9.8-.29,4.21-.44,6.61-.44,7.19l-27.01,126.36c.29,4.94.14,11.19-.44,18.74-.59,7.56-1.38,14.96-2.4,22.22-1.02,7.26-2.11,13.87-3.27,19.83-1.16,5.96-2.18,9.8-3.05,11.55-2.91,4.94-4.94,9.8-6.1,14.6-1.16,4.79-3.05,9.23-5.66,13.29h-17.86c-2.04,0-4.29-.14-6.75-.44-2.47-.29-4.79-.8-6.97-1.53-2.18-.72-4-1.59-5.45-2.61-1.46-1.01-2.18-2.4-2.18-4.14-.87-10.74-.8-21.06.22-30.94,1.01-9.87,1.53-19.9,1.53-30.07,0-3.19-.15-6.53-.44-10.02-.29-3.49-.73-6.97-1.31-10.46-5.23,0-9.88.29-13.94.87Zm33.33-117.87c-1.02,1.02-1.67,1.82-1.96,2.4-1.74,2.61-3.7,6.03-5.88,10.24-2.18,4.21-4.21,8.28-6.1,12.2-1.89,3.92-4.14,8.79-6.75,14.6l-3.05,20.92c3.19,0,6.03.44,8.5,1.31,2.47.87,4.58-.29,6.32-3.48,2.32-3.77,4.21-8.5,5.66-14.16,1.45-5.66,2.61-11.47,3.49-17.43.87-5.95,1.45-11.33,1.74-16.12.29-4.79.44-8.2.44-10.24v-2.18c-.59.29-1.38.95-2.4,1.96Z"/><path class="cls-1" d="m647.05,353.23l13.51-53.16c1.16-3.77,1.82-6.54,1.96-8.28.15-1.74.07-2.98-.22-3.7-.29-.72-.5-1.16-.65-1.31-.14-.14-.07-.5.22-1.09l81.92-234.43c.29-1.74.44-2.9.44-3.49,0-3.19-1.53-5.73-4.58-7.62-3.05-1.89-6.83-3.27-11.33-4.14-4.51-.87-9.37-1.45-14.6-1.74-5.23-.29-10.02-.72-14.38-1.31-4.36-.58-7.99-1.31-10.89-2.18-2.91-.87-4.21-2.32-3.92-4.36,0-.58.87-1.16,2.61-1.74,1.74-.58,2.61-1.59,2.61-3.05,0-.87-1.02-1.89-3.05-3.05-2.04-1.16-1.82-2.83.65-5.01,2.46-2.18,4.58-3.56,6.32-4.14,9.59-.29,18.88-1.01,27.89-2.18,9-1.16,18.01-2.32,27.02-3.49,9-1.16,18.08-2.03,27.23-2.61,9.15-.58,18.52-.72,28.1-.44l9.15.44c3.49.29,7.04.29,10.68,0,3.63-.29,7.19-.44,10.68-.44h6.97c.87,2.04.44,3.64-1.31,4.79-1.74,1.16-3.05,2.11-3.92,2.83-.87.73-.22,1.46,1.96,2.18,2.18.73,7.77,1.52,16.78,2.4,4.94.58,10.53,1.38,16.78,2.4,6.24,1.02,12.13,2.55,17.65,4.57,5.51,2.04,10.16,4.65,13.94,7.84,3.77,3.2,5.66,7.26,5.66,12.2,0,5.23.72,9.52,2.18,12.86,1.45,3.34,2.18,7.62,2.18,12.85,0,13.66-1.96,25.42-5.88,35.3-3.92,9.88-8.93,18.52-15.03,25.92-6.1,7.41-12.71,13.73-19.83,18.96-7.12,5.23-13.88,9.8-20.26,13.73-6.39,3.92-12.06,7.41-16.99,10.46-4.94,3.05-7.99,6.03-9.15,8.93,2.9,16.27,5.01,31.23,6.32,44.88,1.31,13.66,1.96,28.62,1.96,44.88,0,1.74.29,5.52.87,11.33.58,5.82.87,11.19.87,16.12,0,5.81-.37,10.68-1.09,14.6-.73,3.92-1.09,6.75-1.09,8.5,0,.87-.44.87-1.31,0-.87-.87-2.04-1.59-3.49-2.18-1.46-.58-2.98-.58-4.58,0-1.6.58-2.98,2.91-4.14,6.97-2.91,9.01-5.6,15.47-8.06,19.39-2.47,3.92-4.87,6.53-7.19,7.84-2.33,1.31-4.51,1.74-6.54,1.31-2.04-.44-3.92-.65-5.66-.65-4.94,0-8.71-1.59-11.33-4.79-2.61-3.19-4.65-7.11-6.1-11.76l3.05-42.27c-2.33-12.2-3.78-23.38-4.36-33.55-.59-10.16-1.02-19.39-1.31-27.67-.29-8.28-.87-15.54-1.74-21.79-.87-6.24-2.61-11.69-5.23-16.34-.29,0-.95-.07-1.96-.22-1.02-.14-1.82-.22-2.4-.22-4.07,0-6.97,1.31-8.71,3.92-1.74,2.61-3.34,5.52-4.79,8.71-1.74,3.78-4,8.87-6.75,15.25-2.76,6.39-5.74,12.93-8.93,19.61-2.33,7.27-4.65,12.93-6.97,16.99-.87,2.61-1.53,4.51-1.96,5.66-.44,1.16-.8,2.18-1.09,3.05-.29.87-.58,1.74-.87,2.61-.29.87-.73,2.18-1.31,3.92-1.46,3.48-3.12,8.06-5.01,13.73-1.89,5.66-3.78,11.33-5.66,16.99-1.89,5.66-3.56,10.68-5.01,15.03-1.46,4.36-2.33,7.12-2.61,8.28-.59,1.46-1.46,2.25-2.61,2.4-1.16.15-2.47.22-3.92.22-1.16,0-2.61.22-4.36.65-1.74.44-3.49,1.53-5.23,3.27-2.61,2.04-4.57,4.43-5.88,7.19-1.31,2.76-2.4,5.38-3.27,7.84-.87,2.47-1.74,4.57-2.61,6.32-.87,1.74-2.33,2.61-4.36,2.61-.87,0-1.53-.44-1.96-1.31-.44-.87-.8-1.74-1.09-2.61-.29-.87-.65-1.74-1.09-2.61-.44-.87-1.09-1.31-1.96-1.31s-1.74.58-2.61,1.74c-.87,1.16-1.74,2.33-2.61,3.49-.87,1.16-1.53,2.03-1.96,2.61-.44.58-.65.29-.65-.87l-8.71-3.49ZM828.32,47.35c-8.71-.29-14.81.22-18.3,1.52-3.49,1.31-6.1,4.07-7.84,8.28-1.74,4.21-3.64,10.17-5.66,17.87-2.04,7.7-5.81,17.8-11.33,30.28,0,.29-.73,2.55-2.18,6.75-1.46,4.21-2.69,8.06-3.7,11.55-1.02,3.48-1.68,5.52-1.96,6.1,6.1-3.48,13.43-7.33,22.01-11.55,8.56-4.21,16.84-8.86,24.84-13.95,7.99-5.08,14.74-10.52,20.26-16.34,5.51-5.81,8.28-12.2,8.28-19.17,0-8.13-1.74-13.65-5.23-16.56-3.49-2.9-9.88-4.36-19.17-4.36v-.43Z"/><path class="cls-1" d="m899.34,371.1l-22.22-20.92,29.19-92.38c.87-2.61,2.54-7.62,5.01-15.03,2.46-7.41,4.86-14.6,7.19-21.57,1.16-3.49,2.46-6.97,3.92-10.46,1.45-3.49,2.46-5.95,3.05-7.41-.59-.87-1.53-2.46-2.83-4.79-1.31-2.32-2.69-4.86-4.14-7.62-1.46-2.76-2.76-5.37-3.92-7.84-1.16-2.47-1.74-4.14-1.74-5.01-2.33-18.3-4.65-33.69-6.97-46.19-2.33-12.49-4.51-23.82-6.54-33.99-2.04-10.16-3.64-20.04-4.79-29.63-1.16-9.59-1.74-20.48-1.74-32.68,0-1.45.07-4.36.22-8.71.14-4.36.22-7.26.22-8.71,0-.29.58-.65,1.74-1.09,1.16-.43,2.4-1.01,3.7-1.74,1.31-.72,2.54-1.31,3.7-1.74,1.16-.44,1.74-.8,1.74-1.09,0-2.03,1.01-3.77,3.05-5.23,2.03-1.45,4.43-2.68,7.19-3.7,2.76-1.01,5.59-1.74,8.5-2.18,2.9-.44,5.08-.8,6.54-1.09,1.45-.29,1.89-.36,1.31-.22-.58.15-2.91.37-6.97.65,2.9,4.65,5.45,8.5,7.63,11.55,2.18,3.05,4.86,4.43,8.06,4.14l23.09,69.72c.87,4.94,1.81,7.48,2.83,7.62,1.01.15,2.54-1.31,4.58-4.36,2.03-3.05,4.5-7.41,7.41-13.07,2.9-5.66,6.82-11.98,11.77-18.95,1.74-2.32,3.7-5.37,5.88-9.15,2.18-3.77,4.43-7.55,6.75-11.33,2.32-3.77,5.01-7.04,8.06-9.8,3.05-2.76,6.32-4.28,9.8-4.58l15.25-1.31,15.69-.87,22.22,2.61c2.61.29,4.06,1.89,4.36,4.79.29,2.91.44,4.94.44,6.1,0,.59-.07,1.68-.22,3.27-.15,1.6-.22,2.69-.22,3.27-2.03,2.33-4.72,5.96-8.06,10.89-3.34,4.94-7.05,10.68-11.11,17.21-4.07,6.54-8.28,13.44-12.64,20.7-4.36,7.26-8.5,14.24-12.42,20.91-3.92,6.69-7.48,12.71-10.68,18.08-3.2,5.38-5.52,9.37-6.97,11.98-3.2,5.23-6.83,12.06-10.89,20.48-4.07,8.43-8.14,16.99-12.2,25.71-1.46,3.2-3.49,6.18-6.1,8.93-2.61,2.77-4.07,4.58-4.36,5.45l-36.17,139.87c-.59,2.33-1.46,4.87-2.61,7.62-1.16,2.77-2.61,5.16-4.36,7.19-1.74,2.03-3.7,3.41-5.88,4.14-2.18.72-4.58.07-7.19-1.96-3.2-2.32-6.03-2.9-8.5-1.74-2.47,1.16-4.73,2.83-6.75,5.01-2.04,2.18-3.92,4.43-5.66,6.75-1.74,2.32-3.49,3.49-5.23,3.49Z"/><path class="cls-1" d="m1081.04,36.45c0-2.61.58-4.42,1.74-5.45,1.16-1.01,2.61-1.74,4.36-2.18,1.74-.44,3.56-.94,5.45-1.52,1.89-.58,3.56-1.74,5.01-3.49,3.77-4.36,7.41-7.26,10.89-8.71,3.49-1.45,6.82-2.18,10.02-2.18,1.16,0,3.7.07,7.62.22,3.92.15,6.46.22,7.62.22,6.1,3.48,10.82,8.86,14.16,16.12,3.34,7.27,5.95,15.11,7.84,23.53,1.89,8.43,3.41,16.92,4.57,25.49,1.16,8.57,2.47,15.9,3.92,22,.87,3.2,2.68,9.88,5.45,20.04,2.76,10.17,5.81,21.28,9.15,33.33,3.34,12.06,6.46,23.75,9.37,35.08,2.9,11.33,5.08,19.61,6.53,24.84.29,1.16.94,3.42,1.96,6.75,1.01,3.34,1.81,5.45,2.4,6.32.58-.29,1.38-.94,2.4-1.96,1.01-1.02,1.67-1.81,1.96-2.4.87-2.32,2.46-8.71,4.79-19.17,2.32-10.46,5.08-22.88,8.28-37.25,3.19-14.38,6.75-29.63,10.68-45.75,3.92-16.12,7.69-31.01,11.33-44.66,3.63-13.65,7.11-25.12,10.46-34.42,3.34-9.29,6.17-14.23,8.5-14.82,5.23,1.16,10.89,1.24,16.99.22,6.1-1.01,12.12-2.4,18.08-4.14,5.95-1.74,11.61-3.41,16.99-5.01,5.37-1.59,10.09-2.4,14.16-2.4,3.19,0,5.81,1.46,7.84,4.36,2.03,2.91,3.05,5.96,3.05,9.15,0,.29-.07.65-.22,1.09-.15.44-.22.8-.22,1.09-7.84,25.57-15.11,50.84-21.79,75.82-6.69,24.99-13.58,49.75-20.7,74.29-7.12,24.55-14.96,48.95-23.53,73.2-8.57,24.26-18.52,48.58-29.85,72.99-1.74,4.07-3.34,8.71-4.79,13.94-1.46,5.23-4.21,9.3-8.28,12.2-6.69-.87-12.57-1.16-17.65-.87-5.09.29-9.44.8-13.07,1.52-3.63.73-6.61,1.53-8.93,2.4-2.33.87-3.92,1.31-4.79,1.31-4.95,0-9.8-1.09-14.6-3.27-4.79-2.18-8.35-5.45-10.68-9.8-3.2-6.39-5.01-12.85-5.45-19.39-.44-6.53-1.52-13.14-3.27-19.83-5.23-21.2-10.39-42.27-15.47-63.18-5.09-20.92-10.1-41.97-15.03-63.18-2.61-11.04-5.96-22.51-10.02-34.42-4.07-11.91-7.92-23.96-11.55-36.17-3.64-12.2-6.83-24.33-9.59-36.38-2.77-12.05-4.14-23.89-4.14-35.51Z"/><path class="cls-1" d="m1446.51,48.4c-.87-1.31-2.47-2.4-4.79-3.27-2.33-.87-5.01-1.67-8.06-2.4-3.05-.72-5.6-1.96-7.62-3.7l3.48-35.29c.29-2.32-.22-3.56-1.53-3.7-1.31-.14-2.83.22-4.57,1.09-1.74.87-3.42,1.82-5.01,2.83-1.6,1.02-2.69,1.52-3.27,1.52-4.94.58-7.99,1.6-9.15,3.05-1.16,1.46-2.47,4.51-3.92,9.15-5.23,15.98-10.17,32.46-14.82,49.46-4.65,16.99-9.08,33.99-13.29,50.98-4.21,16.99-8.35,33.7-12.42,50.11-4.07,16.42-8.28,31.88-12.64,46.41-1.46,4.07-2.61,6.97-3.48,8.71-.87,1.74-.58,4.65.87,8.71l-12.91,73.66c-.5,1.86-1.02,3.7-1.51,5.57-4.52,17.03-8.83,34.05-12.92,51.08-4.09,17.02-8.11,33.76-12.05,50.2-3.95,16.45-8.05,31.94-12.3,46.5-1.43,4.08-2.56,6.99-3.42,8.74-.86,1.75-.55,4.65.94,8.71l-14.2,84.64.07,9.15,2.23,6.52c.3,2.33,1.33,3.26,3.07,2.81,1.74-.45,3.19-.82,4.35-1.12.87,0,1.45.57,1.75,1.73.89,3.19,2.72,5.5,5.5,6.93,2.77,1.44,5.3.69,7.61-2.24,1.16,0,1.97,1.22,2.43,3.69.45,2.47,1.12,3.7,1.99,3.69l20.85-8.43c2.3-2.63,3.72-6.85,4.27-12.67.54-5.81,1.93-13.23,4.19-22.25.85-3.2,1.92-5.68,3.21-7.43,1.29-1.75,2.59-3.29,3.89-4.6,1.3-1.32,2.44-2.56,3.46-3.73,1.01-1.17,1.79-2.77,2.36-4.81,2.24-11.63,4.26-22.91,6.07-33.81,1.81-10.91,3.54-21.74,5.21-32.5,1.66-10.76,3.33-21.6,4.99-32.5,1.66-10.91,3.32-22.31,4.98-34.24,2.22-13.37,5.16-28.65,8.81-45.82.71-3.33,1.38-6.65,2.06-9.97,2.25-2.62,3.67-6.78,4.24-12.49.58-5.81,2.03-13.21,4.36-22.22.87-3.19,1.96-5.66,3.27-7.41,1.31-1.74,2.61-3.27,3.92-4.58,1.31-1.31,2.46-2.54,3.48-3.7,1.02-1.16,1.81-2.76,2.4-4.79,2.32-11.61,4.43-22.88,6.32-33.77,1.89-10.89,3.7-21.71,5.45-32.46,1.74-10.74,3.48-21.57,5.23-32.46,1.74-10.89,3.48-22.29,5.23-34.21,2.32-13.36,5.37-28.61,9.15-45.75,3.77-17.14,7.11-34.13,10.02-50.98,2.32-2.9,3.05-5.01,2.18-6.32Z"/><path class="cls-1" d="m1173.16,427.33l8.95-1.91,85.76-3.2c3.67-2.28,6.45-3.16,8.34-2.68,1.89.49,4.96,1.01,9.25,1.58,15.11,1.22,31.12,2.1,48.02,2.65,16.89.54,34.1,1.1,51.6,1.66,17.5.56,35.04,1.34,52.63,2.33,17.59.99,34.74,2.37,51.46,4.14,4.84.45,8.1,1.09,9.77,1.92,1.66.83,3.29,3.6,4.9,8.31.12.57.84,1.53,2.17,2.88,1.33,1.35,2.6,2.79,3.82,4.31,1.22,1.52,1.89,2.94,2.02,4.25.13,1.31-.97,2.06-3.3,2.27l-35.24,3.98c-1.28,2.35-1.96,5.1-2.03,8.23-.07,3.14-.29,5.93-.66,8.39-.37,2.45-1.1,4.24-2.19,5.37-1.09,1.13-3.31.86-6.63-.81-17.09.68-34.4.97-51.95.86-17.56-.11-33.11.1-46.65.62-12.02.79-23.53,1.47-34.54,2.04-11.02.57-21.97,1.13-32.84,1.68-10.88.54-21.84,1.03-32.88,1.46-11.05.43-22.5.73-34.34.89-2.11-.15-3.84-.59-5.19-1.34-1.35-.76-2.8-1.63-4.35-2.63s-3.32-1.97-5.3-2.88c-1.98-.91-4.62-1.46-7.93-1.65-9.3-.39-16.84-.26-22.64.39-5.81.64-10.23.11-13.27-1.62l-12.47-18.72c-.18-.85.89-1.75,3.21-2.69,2.32-.94,3.36-1.99,3.12-3.12-3.33-1.67-4.58-4-3.73-7,.84-3.01,2.73-5.26,5.68-6.78,1.07-.53,1.52-1.22,1.34-2.07-.53-1.08-1.19-2.42-1.98-4.03-.79-1.61-.09-2.81,2.13-3.58l5.93-3.5Z"/><path class="cls-1" d="m1440.96,336.24v-2.18c2.61-.87,4.72-2.18,6.32-3.92,1.59-1.74,2.25-3.19,1.96-4.36l-3.05-9.15c.58-4.36,1.45-11.11,2.61-20.26,1.16-9.15,2.54-19.46,4.14-30.94,1.59-11.47,3.34-23.53,5.23-36.17,1.89-12.64,3.63-24.69,5.23-36.17,1.59-11.47,3.12-21.71,4.57-30.72,1.45-9,2.61-15.69,3.48-20.04.29-1.16,1.02-4.06,2.18-8.71,1.16-4.64,2.54-9.73,4.14-15.25,1.6-5.51,3.05-10.6,4.36-15.25,1.31-4.64,2.1-7.55,2.4-8.71.58-2.61,2.03-7.55,4.36-14.82,2.32-7.26,4.5-14.74,6.54-22.44,2.03-7.69,3.55-14.45,4.57-20.26,1.02-5.81.65-8.71-1.09-8.71-.29,0-1.02-.29-2.18-.87-1.16-.58-2.25-1.23-3.27-1.96-1.02-.72-1.82-1.59-2.4-2.61-.58-1.01-.44-1.96.44-2.83,2.61-2.61,9.07-4.72,19.39-6.32,10.31-1.59,21.5-2.9,33.55-3.92,12.05-1.01,23.31-1.67,33.77-1.96,10.46-.29,17.28-.44,20.48-.44h11.33c5.81,0,12.05.65,18.74,1.96,6.68,1.31,11.77,4.43,15.25,9.37,3.48,4.65,6.68,7.84,9.59,9.59,2.9,1.74,5.23,4.07,6.97,6.97,4.93,6.69,7.41,14.09,7.41,22.22,0,.58-.15,1.31-.43,2.18-.59.87-1.46,2.11-2.62,3.7-1.16,1.6-2.4,3.34-3.7,5.23-1.31,1.89-2.62,3.64-3.92,5.23-1.31,1.6-2.4,2.69-3.27,3.27-1.74.29-3.64.15-5.66-.44-2.03-.58-4-1.01-5.88-1.31-1.89-.29-3.7-.36-5.45-.22-1.74.15-3.05,1.09-3.92,2.83-.87,1.46-4.21,2.69-10.02,3.7-5.82,1.02-12.64,1.89-20.48,2.61-7.84.73-16.05,1.38-24.62,1.96-8.57.58-15.91,1.02-22,1.31-.59,1.74-1.68,4.51-3.27,8.28-1.6,3.78-3.42,8.14-5.45,13.07-2.03,4.94-4,10.17-5.88,15.69-1.89,5.52-3.42,10.75-4.57,15.69v2.18c.29.58.94,1.38,1.96,2.4,1.01,1.02,1.81,1.68,2.4,1.96,4.07,0,8.93.08,14.6.22,5.66.15,11.4.59,17.21,1.31,5.81.73,11.55,1.6,17.21,2.61,5.66,1.02,10.53,2.4,14.6,4.14,1.74.87,2.83,2.25,3.27,4.14.44,1.89.65,4,.65,6.32,0,2.03.07,4.14.22,6.32.14,2.18.8,3.99,1.96,5.45,2.9,3.48,5.3,6.18,7.19,8.06,1.89,1.89,4.42,4.73,7.62,8.5.87.87,0,2.11-2.61,3.7-2.61,1.6-5.66,3.2-9.15,4.79-3.48,1.6-6.83,2.91-10.02,3.92-3.2,1.02-5.23,1.53-6.1,1.53-2.61.58-7.41,1.38-14.38,2.4-6.97,1.02-14.38,2.11-22.22,3.27-7.84,1.16-15.25,2.18-22.22,3.05-6.97.87-11.92,1.46-14.82,1.74l-6.1,10.46-10.46,61.44c.29,3.2,2.98,5.01,8.06,5.45,5.08.44,11.11.44,18.08,0,6.97-.44,14.3-1.09,22.01-1.96,7.69-.87,14.45-1.16,20.26-.87,1.16,0,2.83,1.09,5.01,3.27,2.18,2.18,4.43,4.79,6.75,7.84,2.32,3.05,4.43,6.18,6.32,9.37,1.89,3.2,3.12,5.82,3.7,7.84.29,1.16.44,1.89.44,2.18,0,4.07-1.68,8.14-5.01,12.2-3.34,4.07-8.35,6.97-15.03,8.71-5.82,1.46-12.57,2.76-20.26,3.92-7.7,1.16-15.76,2.25-24.18,3.27-8.43,1.02-16.78,1.82-25.05,2.4-8.28.58-15.69,1.09-22.22,1.53-6.54.43-11.92.73-16.12.87-4.21.15-6.47.22-6.75.22-5.52,0-10.68-1.74-15.47-5.23-4.79-3.49-7.19-8.42-7.19-14.82Z"/><path class="cls-1" d="m1999.13,46.91c-.87,5.52-1.74,12.2-2.61,20.04-.87,7.84-1.82,15.62-2.83,23.31-1.02,7.7-2.33,14.38-3.92,20.04-1.6,5.66-3.56,9.08-5.88,10.24-2.33,1.16-3.92,3.12-4.79,5.88-.87,2.76-1.46,5.88-1.74,9.37-.29,3.49-.58,6.97-.87,10.46-.29,3.48-1.02,6.25-2.18,8.28l-34.86,148.15c-1.46,2.33-3.2,6.54-5.23,12.64-2.04,6.1-4.21,12.28-6.54,18.52-2.33,6.25-4.94,11.7-7.84,16.34-2.91,4.65-6.1,6.83-9.59,6.54l-33.12-3.05c-4.94-2.9-8.65-4.72-11.11-5.45-2.47-.72-4.36-.94-5.66-.65-1.31.29-2.47.87-3.49,1.74-1.02.87-2.55,1.31-4.57,1.31-4.94,0-9.23-3.34-12.85-10.02-3.64-6.68-6.75-14.38-9.37-23.09-2.61-8.71-4.94-17.06-6.97-25.05-2.03-7.99-3.92-13.29-5.66-15.91,0-.29-.29-.5-.87-.65-.59-.14-1.02-.22-1.31-.22-.87,0-1.6.29-2.18.87-4.07,7.27-8.71,15.4-13.94,24.4-5.23,9.01-10.53,17.43-15.9,25.27-5.38,7.84-10.39,14.31-15.03,19.39-4.65,5.09-8.28,7.34-10.89,6.75-3.2-.58-6.32.15-9.37,2.18-3.05,2.03-6.1,4.79-9.15,8.28-3.05,3.49-6.03,7.26-8.93,11.33-2.91,4.06-5.66,7.84-8.28,11.33h-4.36c-.58,0-1.96.22-4.14.65-2.18.43-4.43.94-6.75,1.52-2.33.58-4.57,1.09-6.75,1.53-2.18.43-3.56.65-4.14.65-5.23,0-10.17-1.74-14.82-5.23-4.65-3.49-9.15-6.39-13.51-8.71-2.61-1.16-4.43-3.92-5.45-8.28-1.02-4.36-1.68-9.23-1.96-14.6-.29-5.37-.29-10.82,0-16.34.29-5.51.44-10.02.44-13.51,0-2.03.22-6.24.65-12.64.44-6.39,1.09-13,1.96-19.83.87-6.82,1.81-13,2.83-18.52,1.02-5.52,2.25-8.42,3.7-8.71l36.6-148.58c-.58-2.03-.37-6.54.65-13.51,1.01-6.97,2.68-14.52,5.01-22.66,1.16-3.19,2.47-6.32,3.92-9.37,1.45-3.05,2.9-5.88,4.36-8.5,1.74-2.9,3.34-5.37,4.79-7.41,1.45-2.03,3.34-3.34,5.66-3.92,1.74-.29,2.97-1.53,3.7-3.7.72-2.18,1.23-4.36,1.53-6.54.29-2.18.65-3.85,1.09-5.01.43-1.16,1.23-.87,2.39.87.29.29,1.89,1.09,4.79,2.4,2.9,1.31,5.59,2.4,8.06,3.27,2.46.87,3.85,1.46,4.14,1.74,2.03.87,4.28,1.38,6.75,1.53,2.46.15,5.01.22,7.63.22s5.15.22,7.62.65c2.47.44,4.43,1.53,5.88,3.27l11.77,12.64c0,8.14-1.16,16.63-3.48,25.49-2.33,8.86-4.21,17.5-5.66,25.93-.87,4.36-1.6,8.14-2.18,11.33-.58,3.2-1.16,6.83-1.74,10.89-3.2,8.14-5.96,15.18-8.28,21.13-2.33,5.96-4.94,12.42-7.84,19.39-2.91,6.97-5.52,13.51-7.84,19.61-2.33,6.1-4.29,11.19-5.88,15.25-1.6,4.07-2.4,6.25-2.4,6.54.29,0,1.6-1.96,3.92-5.88,2.32-3.92,5.23-8.86,8.71-14.82,3.48-5.95,7.19-12.34,11.11-19.17,3.92-6.82,7.55-13.21,10.89-19.17,3.34-5.95,6.24-10.82,8.71-14.6,2.47-3.77,3.85-5.66,4.14-5.66,3.19,1.46,7.19,2.4,11.98,2.83,4.79.44,9.07,1.38,12.85,2.83,3.49,1.46,7.91,2.55,13.29,3.27,5.37.73,9.22,1.38,11.55,1.96,4.94,3.78,8.42,7.99,10.46,12.64,2.03,4.65,3.77,10.75,5.23,18.3,1.45,8.14,3.7,16.12,6.75,23.97,3.05,7.84,5.88,14.96,8.5,21.35,2.03-3.49,3.92-8.28,5.66-14.38s3.34-12.2,4.79-18.3c1.45-6.1,2.9-11.77,4.36-16.99,1.45-5.23,2.9-8.86,4.36-10.89,1.74-2.03,3.19-5.3,4.36-9.8,1.16-4.5,2.11-9.29,2.83-14.38.72-5.08,1.38-10.02,1.96-14.82.58-4.79,1.16-8.78,1.74-11.98,2.03-9.59,4.07-18.59,6.1-27.01,2.03-8.42,3.99-15.83,5.88-22.22,1.89-6.39,3.85-11.55,5.88-15.47,2.03-3.92,4.21-5.88,6.54-5.88,4.36,0,7.91-.87,10.68-2.61,2.76-1.74,5.3-3.63,7.63-5.66,2.32-2.03,4.79-3.92,7.4-5.66,2.62-1.74,5.95-2.9,10.02-3.48l31.37,16.56-.87,5.66Z"/></g></svg>