<svg width="25" height="25" viewBox="0 0 25 25" fill="none" xmlns="http://www.w3.org/2000/svg">
<path d="M12.4992 0C6.24924 0 0 3.12483 0 7.81242C0 10.9373 2.34363 12.5 2.34363 15.6248C2.34363 17.9686 1.56263 17.9686 1.56263 19.5314C1.56263 20.3124 4.06312 21.198 6.24989 21.8751V25H18.7498V21.8752C18.7498 21.8752 23.4664 20.4189 23.437 19.5314C23.3887 18.0758 22.656 17.9686 22.656 15.6248C22.656 14.0621 25.033 10.8634 24.9997 7.81242C24.9984 3.12486 18.7491 0 12.4992 0ZM7.81192 9.3745C9.53792 9.3745 10.9365 10.7738 10.9365 12.4993C10.9365 14.2255 9.53727 15.6241 7.81192 15.6241C6.08656 15.6241 4.68721 14.2249 4.68721 12.4993C4.68721 10.7738 6.08646 9.37453 7.81184 9.37453L7.81192 9.3745ZM17.1864 9.3745C18.9125 9.3745 20.3111 10.7738 20.3111 12.4993C20.3111 14.2255 18.9118 15.6241 17.1864 15.6241C15.4611 15.6241 14.0618 14.2249 14.0618 12.4993C14.0618 10.7738 15.4611 9.37453 17.1864 9.37453V9.3745ZM12.4992 14.8437C13.2802 14.8437 14.8428 17.9686 14.8428 18.7503C14.8428 20.313 14.8428 20.313 14.0618 20.313H10.9371C10.1562 20.313 10.1562 20.313 10.1562 18.7503C10.1555 17.9686 11.7182 14.8437 12.4992 14.8437Z" fill="#949494"/>
</svg>
